<svg data-v-423bf9ae="" xmlns="http://www.w3.org/2000/svg" viewBox="0 0 553.3385279405155 198" class="iconAboveSlogan"><!----><!----><!----><g data-v-423bf9ae="" id="e875571b-3294-4c51-bdc2-ea03fcc21bc7" fill="#08282B" transform="matrix(4.647560085914902,0,0,4.647560085914902,-2.9279621280361425,85.89697642780784)"><path d="M5.14 13.75L3.47 13.75L3.47 5.54L0.63 5.54L0.63 3.95L7.99 3.95L7.99 5.54L5.14 5.54L5.14 13.75ZM14.80 6.43L14.80 6.43L14.80 6.43Q15.76 6.43 16.48 6.80L16.48 6.80L16.48 9.45L14.91 9.45L14.91 7.92L14.77 7.92L14.77 7.92Q13.66 7.92 13.06 8.44L13.06 8.44L13.06 8.44Q12.46 8.96 12.46 10.00L12.46 10.00L12.46 12.33L14.46 12.33L14.46 13.75L9.34 13.75L9.34 12.33L10.85 12.33L10.85 8.01L9.34 8.01L9.34 6.59L12.35 6.59L12.35 7.74L12.35 7.74Q12.64 7.13 13.31 6.78L13.31 6.78L13.31 6.78Q13.99 6.43 14.80 6.43ZM21.01 13.92L21.01 13.92L21.01 13.92Q19.84 13.92 19.10 13.30L19.10 13.30L19.10 13.30Q18.37 12.68 18.37 11.54L18.37 11.54L18.37 11.54Q18.37 10.37 19.21 9.77L19.21 9.77L19.21 9.77Q20.05 9.17 21.22 9.17L21.22 9.17L21.22 9.17Q22.25 9.17 23.00 9.55L23.00 9.55L23.00 9.13L23.00 9.13Q23.00 7.84 21.59 7.84L21.59 7.84L21.59 7.84Q20.41 7.84 19.32 8.57L19.32 8.57L18.83 7.25L18.83 7.25Q20.13 6.43 21.73 6.43L21.73 6.43L21.73 6.43Q24.57 6.43 24.57 9.11L24.57 9.11L24.57 13.75L23.00 13.75L23.00 13.19L23.00 13.19Q22.25 13.92 21.01 13.92ZM21.31 12.50L21.31 12.50L21.31 12.50Q22.32 12.50 23.00 11.79L23.00 11.79L23.00 10.86L23.00 10.86Q22.36 10.54 21.48 10.54L21.48 10.54L21.48 10.54Q20.80 10.54 20.36 10.79L20.36 10.79L20.36 10.79Q19.92 11.05 19.92 11.54L19.92 11.54L19.92 11.54Q19.92 11.97 20.29 12.24L20.29 12.24L20.29 12.24Q20.65 12.50 21.31 12.50ZM30.24 5.60L30.24 5.60L30.24 5.60Q29.85 5.60 29.57 5.32L29.57 5.32L29.57 5.32Q29.29 5.04 29.29 4.63L29.29 4.63L29.29 4.63Q29.29 4.23 29.57 3.96L29.57 3.96L29.57 3.96Q29.85 3.68 30.24 3.68L30.24 3.68L30.24 3.68Q30.65 3.68 30.93 3.96L30.93 3.96L30.93 3.96Q31.21 4.23 31.21 4.63L31.21 4.63L31.21 4.63Q31.21 5.04 30.93 5.32L30.93 5.32L30.93 5.32Q30.65 5.60 30.24 5.60ZM31.05 6.59L31.05 12.33L33.03 12.33L33.03 13.75L27.47 13.75L27.47 12.33L29.44 12.33L29.44 8.01L27.47 8.01L27.47 6.59L31.05 6.59ZM39.31 6.43L39.31 6.43L39.31 6.43Q40.49 6.43 41.22 7.13L41.22 7.13L41.22 7.13Q41.96 7.84 41.96 9.38L41.96 9.38L41.96 13.75L40.35 13.75L40.35 9.72L40.35 9.72Q40.35 8.79 39.94 8.37L39.94 8.37L39.94 8.37Q39.54 7.95 38.86 7.95L38.86 7.95L38.86 7.95Q37.28 7.95 37.28 9.69L37.28 9.69L37.28 13.75L35.67 13.75L35.67 6.59L37.16 6.59L37.16 7.48L37.16 7.48Q37.37 7.06 37.98 6.74L37.98 6.74L37.98 6.74Q38.58 6.43 39.31 6.43ZM47.49 5.60L47.49 5.60L47.49 5.60Q47.10 5.60 46.82 5.32L46.82 5.32L46.82 5.32Q46.54 5.04 46.54 4.63L46.54 4.63L46.54 4.63Q46.54 4.23 46.82 3.96L46.82 3.96L46.82 3.96Q47.10 3.68 47.49 3.68L47.49 3.68L47.49 3.68Q47.89 3.68 48.17 3.96L48.17 3.96L48.17 3.96Q48.45 4.23 48.45 4.63L48.45 4.63L48.45 4.63Q48.45 5.04 48.17 5.32L48.17 5.32L48.17 5.32Q47.89 5.60 47.49 5.60ZM48.30 6.59L48.30 12.33L50.27 12.33L50.27 13.75L44.72 13.75L44.72 12.33L46.69 12.33L46.69 8.01L44.72 8.01L44.72 6.59L48.30 6.59ZM56.56 6.43L56.56 6.43L56.56 6.43Q57.74 6.43 58.47 7.13L58.47 7.13L58.47 7.13Q59.21 7.84 59.21 9.38L59.21 9.38L59.21 13.75L57.60 13.75L57.60 9.72L57.60 9.72Q57.60 8.79 57.19 8.37L57.19 8.37L57.19 8.37Q56.78 7.95 56.11 7.95L56.11 7.95L56.11 7.95Q54.53 7.95 54.53 9.69L54.53 9.69L54.53 13.75L52.92 13.75L52.92 6.59L54.40 6.59L54.40 7.48L54.40 7.48Q54.61 7.06 55.22 6.74L55.22 6.74L55.22 6.74Q55.83 6.43 56.56 6.43ZM64.26 16.59L64.26 16.59L63.39 15.27L63.39 15.27Q64.89 15.16 65.46 14.81L65.46 14.81L65.46 14.81Q66.02 14.46 66.02 13.68L66.02 13.68L66.02 13.26L66.02 13.26Q65.45 13.92 64.36 13.92L64.36 13.92L64.36 13.92Q63.04 13.92 62.22 12.94L62.22 12.94L62.22 12.94Q61.39 11.97 61.39 10.16L61.39 10.16L61.39 10.16Q61.39 8.44 62.22 7.43L62.22 7.43L62.22 7.43Q63.04 6.43 64.39 6.43L64.39 6.43L64.39 6.43Q65.41 6.43 66.02 7.04L66.02 7.04L66.02 6.59L67.63 6.59L67.63 12.99L67.63 12.99Q67.63 14.83 66.87 15.65L66.87 15.65L66.87 15.65Q66.11 16.46 64.26 16.59ZM64.64 12.38L64.64 12.38L64.64 12.38Q65.55 12.38 66.02 11.65L66.02 11.65L66.02 8.67L66.02 8.67Q65.52 7.95 64.64 7.95L64.64 7.95L64.64 7.95Q63.84 7.95 63.42 8.52L63.42 8.52L63.42 8.52Q63.00 9.09 63.00 10.16L63.00 10.16L63.00 10.16Q63.00 11.19 63.43 11.78L63.43 11.78L63.43 11.78Q63.85 12.38 64.64 12.38ZM80.35 13.75L78.68 13.75L78.68 3.95L85.29 3.95L85.29 5.53L80.35 5.53L80.35 7.90L83.94 7.90L83.94 9.48L80.35 9.48L80.35 13.75ZM90.55 13.92L90.55 13.92L90.55 13.92Q88.97 13.92 88.05 12.92L88.05 12.92L88.05 12.92Q87.12 11.91 87.12 10.18L87.12 10.18L87.12 10.18Q87.12 8.46 88.05 7.44L88.05 7.44L88.05 7.44Q88.97 6.43 90.55 6.43L90.55 6.43L90.55 6.43Q92.15 6.43 93.06 7.44L93.06 7.44L93.06 7.44Q93.98 8.46 93.98 10.18L93.98 10.18L93.98 10.18Q93.98 11.90 93.06 12.91L93.06 12.91L93.06 12.91Q92.15 13.92 90.55 13.92ZM90.55 12.38L90.55 12.38L90.55 12.38Q91.42 12.38 91.89 11.79L91.89 11.79L91.89 11.79Q92.36 11.20 92.36 10.18L92.36 10.18L92.36 10.18Q92.36 9.16 91.89 8.55L91.89 8.55L91.89 8.55Q91.42 7.95 90.55 7.95L90.55 7.95L90.55 7.95Q89.70 7.95 89.22 8.55L89.22 8.55L89.22 8.55Q88.75 9.16 88.75 10.18L88.75 10.18L88.75 10.18Q88.75 11.19 89.22 11.78L89.22 11.78L89.22 11.78Q89.70 12.38 90.55 12.38ZM101.04 6.43L101.04 6.43L101.04 6.43Q102.00 6.43 102.72 6.80L102.72 6.80L102.72 9.45L101.15 9.45L101.15 7.92L101.01 7.92L101.01 7.92Q99.90 7.92 99.30 8.44L99.30 8.44L99.30 8.44Q98.70 8.96 98.70 10.00L98.70 10.00L98.70 12.33L100.70 12.33L100.70 13.75L95.58 13.75L95.58 12.33L97.09 12.33L97.09 8.01L95.58 8.01L95.58 6.59L98.59 6.59L98.59 7.74L98.59 7.74Q98.88 7.13 99.55 6.78L99.55 6.78L99.55 6.78Q100.23 6.43 101.04 6.43ZM107.94 13.92L107.94 13.92L107.94 13.92Q106.43 13.92 105.55 12.92L105.55 12.92L105.55 12.92Q104.66 11.93 104.66 10.18L104.66 10.18L104.66 10.18Q104.66 8.44 105.57 7.43L105.57 7.43L105.57 7.43Q106.47 6.43 107.97 6.43L107.97 6.43L107.97 6.43Q110.25 6.43 110.91 8.37L110.91 8.37L109.38 8.89L109.38 8.89Q109.02 7.95 107.98 7.95L107.98 7.95L107.98 7.95Q107.18 7.95 106.74 8.55L106.74 8.55L106.74 8.55Q106.30 9.16 106.30 10.18L106.30 10.18L106.30 10.18Q106.30 11.20 106.74 11.79L106.74 11.79L106.74 11.79Q107.18 12.38 107.95 12.38L107.95 12.38L107.95 12.38Q109.07 12.38 109.42 11.33L109.42 11.33L110.95 11.80L110.95 11.80Q110.31 13.92 107.94 13.92ZM119.69 9.81L119.69 9.81L119.69 9.81Q119.69 10.43 119.63 10.79L119.63 10.79L114.76 10.79L114.76 10.79Q114.91 11.58 115.38 12.03L115.38 12.03L115.38 12.03Q115.85 12.49 116.59 12.49L116.59 12.49L116.59 12.49Q117.53 12.49 118.17 11.79L118.17 11.79L119.14 12.81L119.14 12.81Q118.13 13.92 116.58 13.92L116.58 13.92L116.58 13.92Q115.00 13.92 114.08 12.89L114.08 12.89L114.08 12.89Q113.16 11.87 113.16 10.16L113.16 10.16L113.16 10.16Q113.16 8.43 114.09 7.43L114.09 7.43L114.09 7.43Q115.01 6.43 116.58 6.43L116.58 6.43L116.58 6.43Q117.95 6.43 118.82 7.29L118.82 7.29L118.82 7.29Q119.69 8.15 119.69 9.81ZM114.74 9.42L114.74 9.42L118.10 9.42L118.10 9.42Q118.03 8.64 117.61 8.24L117.61 8.24L117.61 8.24Q117.18 7.84 116.58 7.84L116.58 7.84L116.58 7.84Q115.81 7.84 115.34 8.26L115.34 8.26L115.34 8.26Q114.87 8.68 114.74 9.42Z"></path></g><!----><g data-v-423bf9ae="" id="8e913691-9c51-4300-a5b8-d958e2d93ded" transform="matrix(1.0011123300603315,0,0,1.0011123300603315,226.94438350122664,-5.005561650301651)" stroke="none" fill="#F4D35E"><path d="M80.7 10.9c-2.1 0-4.3.8-5.9 2.5l-.8.8-6.6-6.6c-1.8-1.8-4-2.6-6.2-2.6s-4.5.8-6.2 2.5c-.8.8-1.4 1.7-1.8 2.7a8.82 8.82 0 0 0-6-2.4c-2.2 0-4.5.8-6.2 2.5-1.7 1.7-2.6 4-2.5 6.2 0 2.2.8 4.5 2.5 6.2l11.2 11.2 1.1 1.1-18.4 18.3-1.1-1.1L22.7 41c-1.7-1.7-4-2.6-6.2-2.5-2.2 0-4.5.8-6.2 2.5-1.7 1.7-2.5 3.9-2.5 6.2 0 2.2.8 4.3 2.4 6-1 .4-1.9 1-2.7 1.8C5.8 56.7 5 59 5 61.2s.8 4.5 2.5 6.2l6.6 6.6-.8.8c-1.6 1.6-2.5 3.8-2.5 5.9 0 2.1.8 4.3 2.5 5.9 1.6 1.6 3.8 2.5 5.9 2.5 2.1 0 4.3-.8 5.9-2.5l.8-.8 6.6 6.6c1.7 1.7 3.9 2.5 6.1 2.5 2.2 0 4.5-.8 6.2-2.5.8-.8 1.4-1.7 1.8-2.7 1.7 1.6 3.9 2.4 6 2.4 2.2 0 4.5-.8 6.2-2.5 1.7-1.7 2.5-3.9 2.5-6.2 0-2.2-.8-4.5-2.5-6.2l-11-11-1-1 18.4-18.4 1 1L77.3 59c1.7 1.7 3.9 2.5 6.2 2.5 2.2 0 4.5-.8 6.2-2.5 1.7-1.7 2.5-3.9 2.5-6.2 0-2.2-.8-4.3-2.4-6 1-.4 1.9-1 2.7-1.8 1.7-1.7 2.5-3.9 2.5-6.2 0-2.2-.8-4.4-2.5-6.1L85.8 26l.8-.8c1.6-1.6 2.5-3.8 2.5-5.9 0-2.1-.8-4.3-2.5-5.9-1.6-1.7-3.7-2.5-5.9-2.5zm-58.6 71l-.8.8c-.6.6-1.3.8-2 .8s-1.4-.3-2-.8c-.6-.6-.8-1.2-.8-2 0-.7.3-1.4.8-2l.8-.8 4 4zM41 84.1c.6.6.9 1.4.9 2.2 0 .8-.3 1.6-.9 2.2-.6.6-1.4.9-2.2.9-.8 0-1.6-.3-2.2-.9L20.1 72l-8.6-8.6c-.6-.6-.9-1.4-.9-2.2 0-.8.3-1.6.9-2.2.6-.6 1.4-.9 2.2-.9.8 0 1.6.3 2.2.9L41 84.1zM29.9 56.2l10.9 10.9 3 3L55 81.3c.6.6.9 1.4.9 2.2 0 .8-.3 1.6-.9 2.2-.6.6-1.4.9-2.2.9-.8 0-1.6-.3-2.2-.9L19.9 55l-5.6-5.6c-.6-.6-.9-1.4-.9-2.2 0-.8.3-1.6.9-2.2.6-.6 1.4-.9 2.2-.9.8 0 1.6.3 2.2.9l11.2 11.2zm31.3-13.4L42.8 61.2l-3.9-3.9 18.4-18.4 3.9 3.9zM55 19.9l30.7 30.7c.6.6.9 1.4.9 2.2 0 .8-.3 1.6-.9 2.2-.6.6-1.4.9-2.2.9-.8 0-1.6-.3-2.2-.9L70.1 43.8l-3-3-10.9-10.9L45 18.7c-.6-.6-.9-1.4-.9-2.2 0-.8.3-1.6.9-2.2.6-.6 1.4-.9 2.2-.9.8 0 1.6.3 2.2.9l5.6 5.6zm17 .2l16.5 16.5c.6.6.9 1.4.9 2.2 0 .8-.3 1.6-.9 2.2-.6.6-1.4.9-2.2.9-.8 0-1.6-.3-2.2-.9L59 15.9c-.6-.6-.9-1.4-.9-2.2 0-.8.3-1.6.9-2.2.6-.6 1.4-.9 2.2-.9.8 0 1.6.3 2.2.9l8.6 8.6zm11.5-.8c0 .7-.3 1.4-.8 2l-.8.8-3.9-3.9.8-.8c.6-.6 1.3-.8 2-.8s1.4.3 2 .8c.4.5.7 1.2.7 1.9z"></path></g><!----><g data-v-423bf9ae="" id="752518a3-3720-4a92-96f0-df8c9e295125" fill="#1F321D" transform="matrix(2.111334458231643,0,0,2.111334458231643,68.92015812522325,190.64142788079917)"><path d="M6.57 11.94C6.37 11.94 6.29 12.05 6.27 12.28C6.27 12.29 6.27 12.33 6.26 12.39C6.24 12.45 6.24 12.54 6.23 12.68C6.22 12.82 6.20 12.98 6.19 13.19L2.39 13.19C2.23 13.19 2.07 13.20 1.90 13.22C1.74 13.23 1.60 13.26 1.44 13.30L4.54 10.14C4.82 9.84 5.10 9.56 5.35 9.28C5.60 9.00 5.84 8.72 6.03 8.43C6.23 8.13 6.38 7.83 6.50 7.50C6.61 7.18 6.68 6.85 6.68 6.47C6.68 6.02 6.59 5.63 6.44 5.29C6.29 4.96 6.09 4.69 5.82 4.47C5.56 4.24 5.25 4.07 4.91 3.96C4.56 3.85 4.21 3.81 3.84 3.81C3.43 3.81 3.05 3.85 2.70 3.98C2.35 4.10 2.04 4.28 1.78 4.51C1.51 4.73 1.27 5.01 1.11 5.35C0.94 5.68 0.83 6.06 0.77 6.48L1.11 6.54L1.13 6.54L1.18 6.54C1.32 6.54 1.41 6.47 1.46 6.30C1.51 6.02 1.58 5.75 1.72 5.52C1.85 5.28 2.03 5.08 2.23 4.91C2.42 4.75 2.66 4.61 2.93 4.51C3.19 4.41 3.49 4.37 3.79 4.37C4.09 4.37 4.35 4.41 4.62 4.49C4.89 4.58 5.11 4.72 5.32 4.89C5.52 5.05 5.68 5.28 5.81 5.54C5.94 5.81 5.99 6.13 5.99 6.50C5.99 6.82 5.94 7.13 5.84 7.41C5.74 7.69 5.60 7.97 5.43 8.23C5.26 8.50 5.04 8.78 4.80 9.04C4.56 9.31 4.31 9.59 4.03 9.87L0.64 13.29C0.60 13.33 0.59 13.37 0.56 13.43C0.53 13.48 0.52 13.52 0.52 13.58L0.52 13.82L6.90 13.82L6.90 13.52L6.90 13.43L6.90 11.94L6.83 11.94ZM20.65 10.44L20.65 3.91L20.05 3.91L15.08 10.49L15.13 10.81C15.15 10.86 15.18 10.91 15.22 10.93C15.26 10.96 15.30 10.98 15.37 10.98L20.03 10.98L20.03 13.82L20.65 13.82L20.65 10.98L22.27 10.98C22.34 10.98 22.39 10.96 22.41 10.93C22.44 10.91 22.46 10.86 22.46 10.81L22.46 10.44ZM20.03 5.25L20.03 10.44L15.81 10.44L20.08 4.73C20.06 4.83 20.05 4.91 20.05 5.00C20.05 5.08 20.03 5.17 20.03 5.25ZM30.86 14.13L35.20 3.63L34.92 3.63C34.73 3.63 34.61 3.72 34.54 3.89L30.18 14.41L30.46 14.41C30.55 14.41 30.62 14.38 30.69 14.34C30.76 14.29 30.81 14.22 30.86 14.13ZM43.96 3.92L43.25 3.92L43.25 4.34L43.25 5.80L43.58 5.80C43.78 5.80 43.86 5.68 43.88 5.46C43.88 5.38 43.90 5.05 43.93 4.52L49.13 4.52C49.04 4.62 48.97 4.73 48.92 4.86L44.35 13.82L44.80 13.82C44.90 13.82 45.00 13.79 45.05 13.75C45.11 13.71 45.16 13.64 45.21 13.57L49.74 4.56C49.77 4.52 49.78 4.48 49.80 4.42C49.81 4.37 49.83 4.30 49.83 4.21L49.83 3.91ZM82.21 3.92L81.66 3.92L81.62 3.92L80.15 3.92L80.15 4.19C80.15 4.34 80.23 4.42 80.42 4.44L80.54 4.44C80.60 4.44 80.70 4.45 80.84 4.45C80.98 4.45 81.12 4.47 81.28 4.47L78.90 12.24C78.88 12.33 78.85 12.43 78.83 12.54C78.82 12.66 78.79 12.75 78.76 12.87C78.74 12.75 78.72 12.63 78.69 12.53L78.61 12.24L75.81 4.10C75.78 4.05 75.75 3.99 75.71 3.96C75.67 3.93 75.61 3.92 75.54 3.92L75.35 3.92C75.28 3.92 75.22 3.93 75.18 3.98C75.14 4.02 75.10 4.05 75.08 4.10L72.28 12.25C72.25 12.35 72.23 12.43 72.20 12.54C72.17 12.64 72.16 12.75 72.13 12.88C72.11 12.78 72.09 12.67 72.06 12.54C72.04 12.43 72.02 12.33 71.99 12.24L69.61 4.47C69.78 4.47 69.92 4.45 70.04 4.45C70.17 4.45 70.25 4.44 70.31 4.44L70.42 4.44C70.60 4.42 70.70 4.34 70.70 4.19L70.70 3.92L69.23 3.92L68.64 3.92L68.04 3.92L68.04 4.19C68.04 4.34 68.14 4.42 68.32 4.44L68.42 4.44C68.46 4.44 68.50 4.45 68.57 4.45C68.64 4.45 68.73 4.47 68.81 4.47L71.76 13.82L72.39 13.82L75.33 5.22C75.38 5.11 75.40 5.00 75.43 4.87C75.46 5.00 75.49 5.11 75.53 5.22L78.46 13.82L79.10 13.82L82.04 4.47C82.12 4.47 82.19 4.45 82.26 4.45C82.33 4.45 82.39 4.44 82.43 4.44L82.53 4.44C82.71 4.42 82.80 4.34 82.80 4.19L82.80 3.92ZM99.69 8.86C99.69 8.11 99.57 7.41 99.34 6.79C99.12 6.17 98.80 5.64 98.38 5.19C97.96 4.75 97.47 4.40 96.89 4.16C96.32 3.92 95.66 3.79 94.96 3.79C94.26 3.79 93.63 3.92 93.06 4.16C92.48 4.40 91.98 4.75 91.56 5.19C91.14 5.64 90.82 6.17 90.59 6.79C90.37 7.41 90.24 8.11 90.24 8.86C90.24 9.63 90.37 10.33 90.59 10.95C90.82 11.56 91.14 12.10 91.56 12.54C91.98 12.99 92.48 13.33 93.06 13.57C93.63 13.80 94.26 13.93 94.96 13.93C95.66 13.93 96.32 13.80 96.89 13.57C97.47 13.33 97.96 12.99 98.38 12.54C98.80 12.10 99.12 11.56 99.34 10.95C99.57 10.33 99.69 9.63 99.69 8.86ZM98.94 8.86C98.94 9.56 98.85 10.18 98.66 10.72C98.46 11.27 98.20 11.75 97.85 12.12C97.50 12.50 97.08 12.81 96.59 13.01C96.10 13.20 95.56 13.30 94.96 13.30C94.37 13.30 93.84 13.20 93.35 13.01C92.86 12.81 92.44 12.50 92.09 12.12C91.74 11.75 91.46 11.27 91.27 10.72C91.07 10.18 90.99 9.56 90.99 8.86C90.99 8.18 91.07 7.55 91.27 7.00C91.46 6.45 91.74 5.98 92.09 5.60C92.44 5.22 92.86 4.91 93.35 4.72C93.84 4.52 94.37 4.41 94.96 4.41C95.56 4.41 96.10 4.52 96.59 4.72C97.08 4.91 97.50 5.22 97.85 5.60C98.20 5.98 98.46 6.45 98.66 7.00C98.85 7.55 98.94 8.18 98.94 8.86ZM115.96 13.29L115.86 13.29L115.68 13.29C115.60 13.29 115.51 13.27 115.43 13.27L112.46 9.53C112.38 9.42 112.27 9.32 112.15 9.25C112.59 9.21 112.98 9.11 113.33 8.96C113.68 8.81 113.96 8.61 114.21 8.37C114.45 8.13 114.65 7.85 114.77 7.55C114.90 7.24 114.97 6.89 114.97 6.51C114.97 5.66 114.69 5.03 114.13 4.58C113.57 4.14 112.71 3.92 111.57 3.92L109.16 3.92L107.98 3.92L107.98 4.19C107.98 4.34 108.07 4.42 108.25 4.44L108.39 4.44C108.46 4.44 108.56 4.45 108.70 4.45C108.84 4.45 108.99 4.47 109.16 4.47L109.16 13.26C108.99 13.26 108.84 13.27 108.70 13.27C108.56 13.27 108.46 13.29 108.39 13.29L108.25 13.29C108.07 13.30 107.97 13.38 107.97 13.54L107.97 13.82L109.16 13.82L109.87 13.82L111.05 13.82L111.05 13.54C111.05 13.38 110.95 13.30 110.77 13.29L110.63 13.29C110.56 13.29 110.46 13.27 110.32 13.27C110.18 13.27 110.04 13.26 109.87 13.26L109.87 9.34L111.05 9.34C111.24 9.34 111.38 9.35 111.47 9.39C111.55 9.44 111.64 9.52 111.72 9.62L114.90 13.64C114.95 13.71 115.00 13.75 115.05 13.78C115.11 13.80 115.18 13.82 115.25 13.82L115.32 13.82L115.86 13.82L116.23 13.82L116.23 13.54C116.23 13.38 116.14 13.30 115.96 13.29ZM111.47 8.81L109.87 8.81L109.87 4.48L111.57 4.48C112.45 4.48 113.12 4.66 113.58 5.00C114.04 5.33 114.27 5.87 114.27 6.57C114.27 6.92 114.21 7.21 114.09 7.49C113.96 7.77 113.76 7.99 113.53 8.19C113.29 8.39 112.99 8.55 112.64 8.65C112.29 8.75 111.90 8.81 111.47 8.81ZM132.93 13.29L132.85 13.29L132.66 13.29C132.58 13.29 132.48 13.27 132.38 13.27L128.35 9.06C128.27 8.96 128.20 8.89 128.11 8.83C128.03 8.78 127.95 8.74 127.85 8.71C127.93 8.68 128.00 8.64 128.07 8.58C128.14 8.53 128.23 8.46 128.31 8.36L132.10 4.45L132.37 4.45C132.45 4.45 132.51 4.44 132.55 4.44L132.64 4.44C132.82 4.42 132.92 4.34 132.92 4.19L132.92 3.91L131.94 3.91L131.81 3.91L130.00 3.91L130.00 4.19C130.00 4.34 130.10 4.42 130.28 4.44L130.45 4.44C130.55 4.44 130.68 4.45 130.84 4.45L131.29 4.45L127.62 8.22C127.57 8.27 127.51 8.33 127.47 8.36C127.43 8.39 127.37 8.40 127.32 8.43C127.26 8.44 127.22 8.47 127.15 8.47C127.08 8.48 126.99 8.48 126.91 8.48L126.32 8.48L126.32 4.45C126.49 4.45 126.64 4.44 126.78 4.44C126.92 4.44 127.02 4.42 127.09 4.42L127.23 4.42C127.41 4.41 127.50 4.33 127.50 4.17L127.50 3.91L126.32 3.91L125.61 3.91L124.43 3.91L124.43 4.17C124.43 4.33 124.53 4.41 124.71 4.42L124.84 4.42C124.91 4.42 125.02 4.44 125.16 4.44C125.30 4.44 125.44 4.45 125.61 4.45L125.61 13.26C125.44 13.26 125.30 13.27 125.16 13.27C125.02 13.27 124.91 13.29 124.84 13.29L124.71 13.29C124.53 13.30 124.43 13.38 124.43 13.54L124.43 13.82L125.61 13.82L126.32 13.82L127.50 13.82L127.50 13.54C127.50 13.38 127.41 13.30 127.23 13.29L127.09 13.29C127.02 13.29 126.92 13.27 126.78 13.27C126.64 13.27 126.49 13.26 126.32 13.26L126.32 9.04L126.97 9.04C127.08 9.04 127.18 9.04 127.25 9.06C127.32 9.07 127.37 9.09 127.43 9.11C127.48 9.14 127.54 9.17 127.58 9.21C127.62 9.25 127.67 9.28 127.72 9.34L131.57 13.27C131.43 13.27 131.26 13.29 131.10 13.29L130.69 13.29L130.51 13.29C130.33 13.30 130.23 13.38 130.23 13.54L130.23 13.82L132.10 13.82L132.16 13.82L132.33 13.82L132.92 13.82L133.21 13.82L133.21 13.54C133.21 13.38 133.11 13.30 132.93 13.29ZM149.98 8.86C149.98 8.11 149.86 7.41 149.63 6.79C149.41 6.17 149.09 5.64 148.67 5.19C148.25 4.75 147.76 4.40 147.18 4.16C146.61 3.92 145.95 3.79 145.25 3.79C144.55 3.79 143.92 3.92 143.35 4.16C142.77 4.40 142.27 4.75 141.85 5.19C141.43 5.64 141.11 6.17 140.88 6.79C140.66 7.41 140.53 8.11 140.53 8.86C140.53 9.63 140.66 10.33 140.88 10.95C141.11 11.56 141.43 12.10 141.85 12.54C142.27 12.99 142.77 13.33 143.35 13.57C143.92 13.80 144.55 13.93 145.25 13.93C145.95 13.93 146.61 13.80 147.18 13.57C147.76 13.33 148.25 12.99 148.67 12.54C149.09 12.10 149.41 11.56 149.63 10.95C149.86 10.33 149.98 9.63 149.98 8.86ZM149.23 8.86C149.23 9.56 149.14 10.18 148.95 10.72C148.75 11.27 148.48 11.75 148.13 12.12C147.78 12.50 147.36 12.81 146.87 13.01C146.38 13.20 145.85 13.30 145.25 13.30C144.66 13.30 144.13 13.20 143.64 13.01C143.15 12.81 142.73 12.50 142.38 12.12C142.03 11.75 141.75 11.27 141.55 10.72C141.36 10.18 141.27 9.56 141.27 8.86C141.27 8.18 141.36 7.55 141.55 7.00C141.75 6.45 142.03 5.98 142.38 5.60C142.73 5.22 143.15 4.91 143.64 4.72C144.13 4.52 144.66 4.41 145.25 4.41C145.85 4.41 146.38 4.52 146.87 4.72C147.36 4.91 147.78 5.22 148.13 5.60C148.48 5.98 148.75 6.45 148.95 7.00C149.14 7.55 149.23 8.18 149.23 8.86ZM166.22 3.92L165.51 3.92L164.15 3.92L164.15 4.19C164.15 4.34 164.25 4.42 164.43 4.44L164.60 4.44C164.70 4.44 164.84 4.45 165.00 4.45C165.17 4.45 165.34 4.47 165.51 4.47L165.51 10.04C165.51 10.50 165.44 10.92 165.30 11.33C165.16 11.73 164.96 12.08 164.70 12.38C164.43 12.67 164.12 12.89 163.74 13.06C163.37 13.23 162.95 13.31 162.47 13.31C161.99 13.31 161.56 13.23 161.18 13.06C160.80 12.89 160.48 12.66 160.23 12.36C159.96 12.07 159.78 11.72 159.64 11.33C159.50 10.93 159.43 10.50 159.43 10.04L159.43 4.47C159.60 4.47 159.77 4.45 159.94 4.45C160.10 4.45 160.24 4.44 160.34 4.44L160.51 4.44C160.69 4.42 160.79 4.34 160.79 4.19L160.79 3.92L159.43 3.92L158.72 3.92L157.54 3.92L157.54 4.19C157.54 4.34 157.63 4.42 157.81 4.44L157.95 4.44C158.02 4.44 158.12 4.45 158.26 4.45C158.40 4.45 158.55 4.47 158.72 4.47L158.72 10.04C158.72 10.58 158.80 11.09 158.97 11.56C159.14 12.04 159.39 12.46 159.71 12.81C160.03 13.16 160.44 13.44 160.90 13.64C161.36 13.83 161.90 13.93 162.47 13.93C163.04 13.93 163.56 13.83 164.02 13.64C164.49 13.44 164.89 13.16 165.21 12.81C165.54 12.46 165.79 12.04 165.96 11.56C166.12 11.09 166.22 10.58 166.22 10.04L166.22 4.47C166.39 4.47 166.53 4.45 166.67 4.45C166.81 4.45 166.92 4.44 166.99 4.44L167.12 4.44C167.30 4.42 167.40 4.34 167.40 4.19L167.40 3.92ZM182.94 3.92L182.74 3.92L175.45 3.92L175.24 3.92L175.14 3.92L175.14 5.96L175.49 5.96C175.69 5.96 175.77 5.85 175.78 5.63C175.78 5.53 175.81 5.17 175.84 4.52L178.74 4.52L178.74 13.26C178.57 13.26 178.43 13.27 178.29 13.27C178.15 13.27 178.04 13.29 177.97 13.29L177.84 13.29C177.66 13.30 177.56 13.38 177.56 13.54L177.56 13.82L178.74 13.82L179.45 13.82L180.64 13.82L180.64 13.54C180.64 13.38 180.54 13.30 180.36 13.29L180.22 13.29C180.15 13.29 180.05 13.27 179.91 13.27C179.77 13.27 179.62 13.26 179.45 13.26L179.45 4.52L182.34 4.52C182.38 5.24 182.39 5.60 182.39 5.63C182.41 5.85 182.50 5.96 182.70 5.96L183.04 5.96L183.04 3.92ZM196.87 9.91C196.73 9.65 196.53 9.39 196.29 9.21C196.06 9.03 195.80 8.88 195.51 8.75C195.22 8.62 194.89 8.51 194.59 8.41C194.28 8.32 193.97 8.20 193.68 8.11C193.38 7.99 193.12 7.87 192.88 7.71C192.64 7.56 192.46 7.38 192.32 7.15C192.18 6.93 192.09 6.65 192.09 6.31C192.09 6.06 192.15 5.82 192.25 5.59C192.35 5.35 192.49 5.15 192.67 4.97C192.85 4.79 193.07 4.65 193.35 4.55C193.63 4.45 193.94 4.40 194.31 4.40C194.98 4.40 195.59 4.51 196.15 4.75C196.20 5.54 196.22 5.99 196.22 6.06C196.24 6.29 196.32 6.41 196.52 6.41L196.85 6.41L196.85 4.38C195.97 4.00 195.13 3.81 194.31 3.81C193.84 3.81 193.44 3.88 193.07 4.02C192.71 4.16 192.42 4.34 192.18 4.58C191.94 4.82 191.74 5.08 191.62 5.39C191.49 5.70 191.44 6.02 191.44 6.36C191.44 6.78 191.51 7.14 191.65 7.42C191.79 7.70 191.98 7.92 192.22 8.12C192.46 8.32 192.71 8.46 193.00 8.58C193.30 8.71 193.62 8.82 193.93 8.92C194.24 9.02 194.53 9.11 194.84 9.21C195.13 9.31 195.40 9.45 195.64 9.60C195.87 9.76 196.06 9.94 196.20 10.16C196.34 10.39 196.41 10.68 196.41 11.03C196.41 11.35 196.35 11.66 196.24 11.94C196.13 12.22 195.97 12.46 195.76 12.67C195.55 12.88 195.29 13.05 194.98 13.16C194.67 13.29 194.32 13.33 193.93 13.33C193.14 13.33 192.49 13.20 191.95 12.95C191.94 12.75 191.94 12.54 191.93 12.32C191.91 12.10 191.91 11.91 191.90 11.76C191.88 11.61 191.88 11.52 191.88 11.51C191.87 11.28 191.77 11.17 191.58 11.17L191.24 11.17L191.24 13.02L191.24 13.20L191.24 13.38C192.09 13.75 192.98 13.93 193.90 13.93C194.40 13.93 194.85 13.85 195.24 13.69C195.64 13.54 195.97 13.31 196.24 13.05C196.50 12.78 196.73 12.46 196.87 12.10C197.01 11.73 197.08 11.34 197.08 10.92C197.08 10.51 197.01 10.18 196.87 9.91Z"></path></g></svg>