<svg data-v-423bf9ae="" xmlns="http://www.w3.org/2000/svg" viewBox="0 0 664 90" class="iconLeft"><!----><!----><!----><g data-v-423bf9ae="" id="f6b1a894-975b-493c-9cbd-2e1df947afc9" fill="black" transform="matrix(4.647560085914902,0,0,4.647560085914902,107.17215078700292,-2.1030197574948915)"><path d="M5.14 13.75L3.47 13.75L3.47 5.54L0.63 5.54L0.63 3.95L7.99 3.95L7.99 5.54L5.14 5.54L5.14 13.75ZM14.80 6.43L14.80 6.43L14.80 6.43Q15.76 6.43 16.48 6.80L16.48 6.80L16.48 9.45L14.91 9.45L14.91 7.92L14.77 7.92L14.77 7.92Q13.66 7.92 13.06 8.44L13.06 8.44L13.06 8.44Q12.46 8.96 12.46 10.00L12.46 10.00L12.46 12.33L14.46 12.33L14.46 13.75L9.34 13.75L9.34 12.33L10.85 12.33L10.85 8.01L9.34 8.01L9.34 6.59L12.35 6.59L12.35 7.74L12.35 7.74Q12.64 7.13 13.31 6.78L13.31 6.78L13.31 6.78Q13.99 6.43 14.80 6.43ZM21.01 13.92L21.01 13.92L21.01 13.92Q19.84 13.92 19.10 13.30L19.10 13.30L19.10 13.30Q18.37 12.68 18.37 11.54L18.37 11.54L18.37 11.54Q18.37 10.37 19.21 9.77L19.21 9.77L19.21 9.77Q20.05 9.17 21.22 9.17L21.22 9.17L21.22 9.17Q22.25 9.17 23.00 9.55L23.00 9.55L23.00 9.13L23.00 9.13Q23.00 7.84 21.59 7.84L21.59 7.84L21.59 7.84Q20.41 7.84 19.32 8.57L19.32 8.57L18.83 7.25L18.83 7.25Q20.13 6.43 21.73 6.43L21.73 6.43L21.73 6.43Q24.57 6.43 24.57 9.11L24.57 9.11L24.57 13.75L23.00 13.75L23.00 13.19L23.00 13.19Q22.25 13.92 21.01 13.92ZM21.31 12.50L21.31 12.50L21.31 12.50Q22.32 12.50 23.00 11.79L23.00 11.79L23.00 10.86L23.00 10.86Q22.36 10.54 21.48 10.54L21.48 10.54L21.48 10.54Q20.80 10.54 20.36 10.79L20.36 10.79L20.36 10.79Q19.92 11.05 19.92 11.54L19.92 11.54L19.92 11.54Q19.92 11.97 20.29 12.24L20.29 12.24L20.29 12.24Q20.65 12.50 21.31 12.50ZM30.24 5.60L30.24 5.60L30.24 5.60Q29.85 5.60 29.57 5.32L29.57 5.32L29.57 5.32Q29.29 5.04 29.29 4.63L29.29 4.63L29.29 4.63Q29.29 4.23 29.57 3.96L29.57 3.96L29.57 3.96Q29.85 3.68 30.24 3.68L30.24 3.68L30.24 3.68Q30.65 3.68 30.93 3.96L30.93 3.96L30.93 3.96Q31.21 4.23 31.21 4.63L31.21 4.63L31.21 4.63Q31.21 5.04 30.93 5.32L30.93 5.32L30.93 5.32Q30.65 5.60 30.24 5.60ZM31.05 6.59L31.05 12.33L33.03 12.33L33.03 13.75L27.47 13.75L27.47 12.33L29.44 12.33L29.44 8.01L27.47 8.01L27.47 6.59L31.05 6.59ZM39.31 6.43L39.31 6.43L39.31 6.43Q40.49 6.43 41.22 7.13L41.22 7.13L41.22 7.13Q41.96 7.84 41.96 9.38L41.96 9.38L41.96 13.75L40.35 13.75L40.35 9.72L40.35 9.72Q40.35 8.79 39.94 8.37L39.94 8.37L39.94 8.37Q39.54 7.95 38.86 7.95L38.86 7.95L38.86 7.95Q37.28 7.95 37.28 9.69L37.28 9.69L37.28 13.75L35.67 13.75L35.67 6.59L37.16 6.59L37.16 7.48L37.16 7.48Q37.37 7.06 37.98 6.74L37.98 6.74L37.98 6.74Q38.58 6.43 39.31 6.43ZM47.49 5.60L47.49 5.60L47.49 5.60Q47.10 5.60 46.82 5.32L46.82 5.32L46.82 5.32Q46.54 5.04 46.54 4.63L46.54 4.63L46.54 4.63Q46.54 4.23 46.82 3.96L46.82 3.96L46.82 3.96Q47.10 3.68 47.49 3.68L47.49 3.68L47.49 3.68Q47.89 3.68 48.17 3.96L48.17 3.96L48.17 3.96Q48.45 4.23 48.45 4.63L48.45 4.63L48.45 4.63Q48.45 5.04 48.17 5.32L48.17 5.32L48.17 5.32Q47.89 5.60 47.49 5.60ZM48.30 6.59L48.30 12.33L50.27 12.33L50.27 13.75L44.72 13.75L44.72 12.33L46.69 12.33L46.69 8.01L44.72 8.01L44.72 6.59L48.30 6.59ZM56.56 6.43L56.56 6.43L56.56 6.43Q57.74 6.43 58.47 7.13L58.47 7.13L58.47 7.13Q59.21 7.84 59.21 9.38L59.21 9.38L59.21 13.75L57.60 13.75L57.60 9.72L57.60 9.72Q57.60 8.79 57.19 8.37L57.19 8.37L57.19 8.37Q56.78 7.95 56.11 7.95L56.11 7.95L56.11 7.95Q54.53 7.95 54.53 9.69L54.53 9.69L54.53 13.75L52.92 13.75L52.92 6.59L54.40 6.59L54.40 7.48L54.40 7.48Q54.61 7.06 55.22 6.74L55.22 6.74L55.22 6.74Q55.83 6.43 56.56 6.43ZM64.26 16.59L64.26 16.59L63.39 15.27L63.39 15.27Q64.89 15.16 65.46 14.81L65.46 14.81L65.46 14.81Q66.02 14.46 66.02 13.68L66.02 13.68L66.02 13.26L66.02 13.26Q65.45 13.92 64.36 13.92L64.36 13.92L64.36 13.92Q63.04 13.92 62.22 12.94L62.22 12.94L62.22 12.94Q61.39 11.97 61.39 10.16L61.39 10.16L61.39 10.16Q61.39 8.44 62.22 7.43L62.22 7.43L62.22 7.43Q63.04 6.43 64.39 6.43L64.39 6.43L64.39 6.43Q65.41 6.43 66.02 7.04L66.02 7.04L66.02 6.59L67.63 6.59L67.63 12.99L67.63 12.99Q67.63 14.83 66.87 15.65L66.87 15.65L66.87 15.65Q66.11 16.46 64.26 16.59ZM64.64 12.38L64.64 12.38L64.64 12.38Q65.55 12.38 66.02 11.65L66.02 11.65L66.02 8.67L66.02 8.67Q65.52 7.95 64.64 7.95L64.64 7.95L64.64 7.95Q63.84 7.95 63.42 8.52L63.42 8.52L63.42 8.52Q63.00 9.09 63.00 10.16L63.00 10.16L63.00 10.16Q63.00 11.19 63.43 11.78L63.43 11.78L63.43 11.78Q63.85 12.38 64.64 12.38ZM80.35 13.75L78.68 13.75L78.68 3.95L85.29 3.95L85.29 5.53L80.35 5.53L80.35 7.90L83.94 7.90L83.94 9.48L80.35 9.48L80.35 13.75ZM90.55 13.92L90.55 13.92L90.55 13.92Q88.97 13.92 88.05 12.92L88.05 12.92L88.05 12.92Q87.12 11.91 87.12 10.18L87.12 10.18L87.12 10.18Q87.12 8.46 88.05 7.44L88.05 7.44L88.05 7.44Q88.97 6.43 90.55 6.43L90.55 6.43L90.55 6.43Q92.15 6.43 93.06 7.44L93.06 7.44L93.06 7.44Q93.98 8.46 93.98 10.18L93.98 10.18L93.98 10.18Q93.98 11.90 93.06 12.91L93.06 12.91L93.06 12.91Q92.15 13.92 90.55 13.92ZM90.55 12.38L90.55 12.38L90.55 12.38Q91.42 12.38 91.89 11.79L91.89 11.79L91.89 11.79Q92.36 11.20 92.36 10.18L92.36 10.18L92.36 10.18Q92.36 9.16 91.89 8.55L91.89 8.55L91.89 8.55Q91.42 7.95 90.55 7.95L90.55 7.95L90.55 7.95Q89.70 7.95 89.22 8.55L89.22 8.55L89.22 8.55Q88.75 9.16 88.75 10.18L88.75 10.18L88.75 10.18Q88.75 11.19 89.22 11.78L89.22 11.78L89.22 11.78Q89.70 12.38 90.55 12.38ZM101.04 6.43L101.04 6.43L101.04 6.43Q102.00 6.43 102.72 6.80L102.72 6.80L102.72 9.45L101.15 9.45L101.15 7.92L101.01 7.92L101.01 7.92Q99.90 7.92 99.30 8.44L99.30 8.44L99.30 8.44Q98.70 8.96 98.70 10.00L98.70 10.00L98.70 12.33L100.70 12.33L100.70 13.75L95.58 13.75L95.58 12.33L97.09 12.33L97.09 8.01L95.58 8.01L95.58 6.59L98.59 6.59L98.59 7.74L98.59 7.74Q98.88 7.13 99.55 6.78L99.55 6.78L99.55 6.78Q100.23 6.43 101.04 6.43ZM107.94 13.92L107.94 13.92L107.94 13.92Q106.43 13.92 105.55 12.92L105.55 12.92L105.55 12.92Q104.66 11.93 104.66 10.18L104.66 10.18L104.66 10.18Q104.66 8.44 105.57 7.43L105.57 7.43L105.57 7.43Q106.47 6.43 107.97 6.43L107.97 6.43L107.97 6.43Q110.25 6.43 110.91 8.37L110.91 8.37L109.38 8.89L109.38 8.89Q109.02 7.95 107.98 7.95L107.98 7.95L107.98 7.95Q107.18 7.95 106.74 8.55L106.74 8.55L106.74 8.55Q106.30 9.16 106.30 10.18L106.30 10.18L106.30 10.18Q106.30 11.20 106.74 11.79L106.74 11.79L106.74 11.79Q107.18 12.38 107.95 12.38L107.95 12.38L107.95 12.38Q109.07 12.38 109.42 11.33L109.42 11.33L110.95 11.80L110.95 11.80Q110.31 13.92 107.94 13.92ZM119.69 9.81L119.69 9.81L119.69 9.81Q119.69 10.43 119.63 10.79L119.63 10.79L114.76 10.79L114.76 10.79Q114.91 11.58 115.38 12.03L115.38 12.03L115.38 12.03Q115.85 12.49 116.59 12.49L116.59 12.49L116.59 12.49Q117.53 12.49 118.17 11.79L118.17 11.79L119.14 12.81L119.14 12.81Q118.13 13.92 116.58 13.92L116.58 13.92L116.58 13.92Q115.00 13.92 114.08 12.89L114.08 12.89L114.08 12.89Q113.16 11.87 113.16 10.16L113.16 10.16L113.16 10.16Q113.16 8.43 114.09 7.43L114.09 7.43L114.09 7.43Q115.01 6.43 116.58 6.43L116.58 6.43L116.58 6.43Q117.95 6.43 118.82 7.29L118.82 7.29L118.82 7.29Q119.69 8.15 119.69 9.81ZM114.74 9.42L114.74 9.42L118.10 9.42L118.10 9.42Q118.03 8.64 117.61 8.24L117.61 8.24L117.61 8.24Q117.18 7.84 116.58 7.84L116.58 7.84L116.58 7.84Q115.81 7.84 115.34 8.26L115.34 8.26L115.34 8.26Q114.87 8.68 114.74 9.42Z"></path></g><!----><g data-v-423bf9ae="" id="a7b5c876-5015-463a-be71-8bb6d69eda9f" transform="matrix(1.0011123300603315,0,0,1.0011123300603315,-4.0556126840761095,-5.005561650301651)" stroke="none" fill="black"><path d="M80.7 10.9c-2.1 0-4.3.8-5.9 2.5l-.8.8-6.6-6.6c-1.8-1.8-4-2.6-6.2-2.6s-4.5.8-6.2 2.5c-.8.8-1.4 1.7-1.8 2.7a8.82 8.82 0 0 0-6-2.4c-2.2 0-4.5.8-6.2 2.5-1.7 1.7-2.6 4-2.5 6.2 0 2.2.8 4.5 2.5 6.2l11.2 11.2 1.1 1.1-18.4 18.3-1.1-1.1L22.7 41c-1.7-1.7-4-2.6-6.2-2.5-2.2 0-4.5.8-6.2 2.5-1.7 1.7-2.5 3.9-2.5 6.2 0 2.2.8 4.3 2.4 6-1 .4-1.9 1-2.7 1.8C5.8 56.7 5 59 5 61.2s.8 4.5 2.5 6.2l6.6 6.6-.8.8c-1.6 1.6-2.5 3.8-2.5 5.9 0 2.1.8 4.3 2.5 5.9 1.6 1.6 3.8 2.5 5.9 2.5 2.1 0 4.3-.8 5.9-2.5l.8-.8 6.6 6.6c1.7 1.7 3.9 2.5 6.1 2.5 2.2 0 4.5-.8 6.2-2.5.8-.8 1.4-1.7 1.8-2.7 1.7 1.6 3.9 2.4 6 2.4 2.2 0 4.5-.8 6.2-2.5 1.7-1.7 2.5-3.9 2.5-6.2 0-2.2-.8-4.5-2.5-6.2l-11-11-1-1 18.4-18.4 1 1L77.3 59c1.7 1.7 3.9 2.5 6.2 2.5 2.2 0 4.5-.8 6.2-2.5 1.7-1.7 2.5-3.9 2.5-6.2 0-2.2-.8-4.3-2.4-6 1-.4 1.9-1 2.7-1.8 1.7-1.7 2.5-3.9 2.5-6.2 0-2.2-.8-4.4-2.5-6.1L85.8 26l.8-.8c1.6-1.6 2.5-3.8 2.5-5.9 0-2.1-.8-4.3-2.5-5.9-1.6-1.7-3.7-2.5-5.9-2.5zm-58.6 71l-.8.8c-.6.6-1.3.8-2 .8s-1.4-.3-2-.8c-.6-.6-.8-1.2-.8-2 0-.7.3-1.4.8-2l.8-.8 4 4zM41 84.1c.6.6.9 1.4.9 2.2 0 .8-.3 1.6-.9 2.2-.6.6-1.4.9-2.2.9-.8 0-1.6-.3-2.2-.9L20.1 72l-8.6-8.6c-.6-.6-.9-1.4-.9-2.2 0-.8.3-1.6.9-2.2.6-.6 1.4-.9 2.2-.9.8 0 1.6.3 2.2.9L41 84.1zM29.9 56.2l10.9 10.9 3 3L55 81.3c.6.6.9 1.4.9 2.2 0 .8-.3 1.6-.9 2.2-.6.6-1.4.9-2.2.9-.8 0-1.6-.3-2.2-.9L19.9 55l-5.6-5.6c-.6-.6-.9-1.4-.9-2.2 0-.8.3-1.6.9-2.2.6-.6 1.4-.9 2.2-.9.8 0 1.6.3 2.2.9l11.2 11.2zm31.3-13.4L42.8 61.2l-3.9-3.9 18.4-18.4 3.9 3.9zM55 19.9l30.7 30.7c.6.6.9 1.4.9 2.2 0 .8-.3 1.6-.9 2.2-.6.6-1.4.9-2.2.9-.8 0-1.6-.3-2.2-.9L70.1 43.8l-3-3-10.9-10.9L45 18.7c-.6-.6-.9-1.4-.9-2.2 0-.8.3-1.6.9-2.2.6-.6 1.4-.9 2.2-.9.8 0 1.6.3 2.2.9l5.6 5.6zm17 .2l16.5 16.5c.6.6.9 1.4.9 2.2 0 .8-.3 1.6-.9 2.2-.6.6-1.4.9-2.2.9-.8 0-1.6-.3-2.2-.9L59 15.9c-.6-.6-.9-1.4-.9-2.2 0-.8.3-1.6.9-2.2.6-.6 1.4-.9 2.2-.9.8 0 1.6.3 2.2.9l8.6 8.6zm11.5-.8c0 .7-.3 1.4-.8 2l-.8.8-3.9-3.9.8-.8c.6-.6 1.3-.8 2-.8s1.4.3 2 .8c.4.5.7 1.2.7 1.9z"></path></g><!----></svg>